<svg xmlns="http://www.w3.org/2000/svg" xmlns:xlink="http://www.w3.org/1999/xlink" style="enable-background:new 0 0 512 512;" version="1.1" xml:space="preserve" viewBox="26 164.76 460 182.49"><g id="_x33_25_x2C__hill_x2C__landscape_x2C__nature_x2C__mountain_x2C__scene"><g><path d="M361.917,347.242v-93.375l-47.071-59.125l-13.674,13.35l10.036,138.6    l0.038,0.551H361.917z M257.4,164.758l-50.01,60.475l2.125,9.023l44.479-52.48c0.674-0.798,1.857-0.891,2.653-0.215    c0.791,0.659,0.892,1.857,0.216,2.654l-46.274,54.598l25.574,108.43h71.31l-10.067-139.089L257.4,164.758z M103.986,347.242    h16.965l22.51-78.43c0.284-0.997,1.328-1.58,2.334-1.288c0.997,0.276,1.579,1.319,1.288,2.317l-22.218,77.4h107.431    l-28.604-121.273l-22.91-13.196l-40.68,45.683L103.986,347.242z M122.539,249.616l-72.784,66.001l-23.754,31.625h73.926    l36.222-89.063L122.539,249.616z M388.449,241.714l-22.766,12.599v92.93h97.787l-71.063-81.328    c-0.689-0.783-0.605-1.965,0.169-2.656c0.782-0.675,1.972-0.598,2.654,0.186l73.236,83.799h17.532    C453.559,311.811,421.28,276.762,388.449,241.714z" style="fill-rule:evenodd;clip-rule:evenodd;"/></g></g><g id="Layer_1"/></svg>